<mxfile host="app.diagrams.net" agent="Mozilla/5.0 (Windows NT 10.0; Win64; x64) AppleWebKit/537.36 (KHTML, like Gecko) Chrome/129.0.0.0 Safari/537.36" version="24.7.17" pages="6">
  <diagram name="Page-1" id="mhnzAAHJghrbsk7vaMki">
    <mxGraphModel dx="1434" dy="738" grid="1" gridSize="10" guides="1" tooltips="1" connect="1" arrows="1" fold="1" page="1" pageScale="1" pageWidth="827" pageHeight="1169" math="0" shadow="0">
      <root>
        <mxCell id="0" />
        <mxCell id="1" parent="0" />
        <mxCell id="brzPDGeTRpt98-VpQBwJ-2" style="edgeStyle=orthogonalEdgeStyle;rounded=0;orthogonalLoop=1;jettySize=auto;html=1;exitX=0.5;exitY=1;exitDx=0;exitDy=0;entryX=0.5;entryY=0;entryDx=0;entryDy=0;" edge="1" parent="1" source="O-0yg5kQhianNZ8MqX4f-13" target="O-0yg5kQhianNZ8MqX4f-4">
          <mxGeometry relative="1" as="geometry" />
        </mxCell>
        <mxCell id="O-0yg5kQhianNZ8MqX4f-13" value="" style="rounded=1;whiteSpace=wrap;html=1;dashed=1;sketch=1;curveFitting=1;jiggle=2;fillColor=none;" vertex="1" parent="1">
          <mxGeometry x="340" y="200" width="160" height="110" as="geometry" />
        </mxCell>
        <mxCell id="O-0yg5kQhianNZ8MqX4f-7" style="edgeStyle=orthogonalEdgeStyle;rounded=0;orthogonalLoop=1;jettySize=auto;html=1;exitX=0.5;exitY=1;exitDx=0;exitDy=0;entryX=0.5;entryY=0;entryDx=0;entryDy=0;sketch=1;curveFitting=1;jiggle=2;" edge="1" parent="1" source="O-0yg5kQhianNZ8MqX4f-1" target="O-0yg5kQhianNZ8MqX4f-2">
          <mxGeometry relative="1" as="geometry" />
        </mxCell>
        <mxCell id="O-0yg5kQhianNZ8MqX4f-1" value="&lt;font style=&quot;font-size: 11px;&quot;&gt;Inputs&lt;/font&gt;&lt;div style=&quot;font-size: 11px;&quot;&gt;&lt;font style=&quot;font-size: 11px;&quot;&gt;32x32x3&lt;/font&gt;&lt;/div&gt;" style="ellipse;whiteSpace=wrap;html=1;fillColor=#d5e8d4;strokeColor=#82b366;shadow=1;sketch=1;curveFitting=1;jiggle=2;" vertex="1" parent="1">
          <mxGeometry x="380" y="40" width="80" height="70" as="geometry" />
        </mxCell>
        <mxCell id="brzPDGeTRpt98-VpQBwJ-1" style="edgeStyle=orthogonalEdgeStyle;rounded=0;orthogonalLoop=1;jettySize=auto;html=1;exitX=0.5;exitY=1;exitDx=0;exitDy=0;entryX=0.5;entryY=0;entryDx=0;entryDy=0;" edge="1" parent="1" source="O-0yg5kQhianNZ8MqX4f-2" target="O-0yg5kQhianNZ8MqX4f-13">
          <mxGeometry relative="1" as="geometry" />
        </mxCell>
        <mxCell id="O-0yg5kQhianNZ8MqX4f-2" value="Input FC Layer,&amp;nbsp;&lt;span style=&quot;background-color: initial;&quot;&gt;3072&lt;/span&gt;" style="rounded=1;whiteSpace=wrap;html=1;fillColor=#fff2cc;strokeColor=#d6b656;glass=0;sketch=1;curveFitting=1;jiggle=2;" vertex="1" parent="1">
          <mxGeometry x="350" y="140" width="140" height="40" as="geometry" />
        </mxCell>
        <mxCell id="O-0yg5kQhianNZ8MqX4f-11" value="" style="edgeStyle=orthogonalEdgeStyle;rounded=0;orthogonalLoop=1;jettySize=auto;html=1;sketch=1;curveFitting=1;jiggle=2;" edge="1" parent="1" source="O-0yg5kQhianNZ8MqX4f-3" target="O-0yg5kQhianNZ8MqX4f-9">
          <mxGeometry relative="1" as="geometry" />
        </mxCell>
        <mxCell id="O-0yg5kQhianNZ8MqX4f-3" value="FC Layer,&amp;nbsp;&lt;span style=&quot;background-color: initial;&quot;&gt;1024&lt;/span&gt;" style="rounded=1;whiteSpace=wrap;html=1;fillColor=#fff2cc;strokeColor=#d6b656;sketch=1;curveFitting=1;jiggle=2;" vertex="1" parent="1">
          <mxGeometry x="350" y="210" width="140" height="40" as="geometry" />
        </mxCell>
        <mxCell id="O-0yg5kQhianNZ8MqX4f-4" value="Output Layer, 100" style="rounded=1;whiteSpace=wrap;html=1;fillColor=#fad9d5;strokeColor=#ae4132;sketch=1;curveFitting=1;jiggle=2;" vertex="1" parent="1">
          <mxGeometry x="350" y="330" width="140" height="40" as="geometry" />
        </mxCell>
        <mxCell id="O-0yg5kQhianNZ8MqX4f-8" value="Flatten" style="text;html=1;align=center;verticalAlign=middle;resizable=0;points=[];autosize=1;strokeColor=none;fillColor=none;sketch=1;curveFitting=1;jiggle=2;" vertex="1" parent="1">
          <mxGeometry x="420" y="110" width="60" height="30" as="geometry" />
        </mxCell>
        <mxCell id="O-0yg5kQhianNZ8MqX4f-9" value="ReLU" style="shape=parallelogram;perimeter=parallelogramPerimeter;whiteSpace=wrap;html=1;fixedSize=1;fillColor=#b0e3e6;strokeColor=#0e8088;sketch=1;curveFitting=1;jiggle=2;" vertex="1" parent="1">
          <mxGeometry x="350" y="270" width="140" height="30" as="geometry" />
        </mxCell>
        <mxCell id="sZHQ_H2IKZB3Rs4eO7yG-1" value="Hidden Layer" style="text;html=1;align=center;verticalAlign=middle;resizable=0;points=[];autosize=1;strokeColor=none;fillColor=none;" vertex="1" parent="1">
          <mxGeometry x="500" y="240" width="90" height="30" as="geometry" />
        </mxCell>
      </root>
    </mxGraphModel>
  </diagram>
  <diagram id="zuRc2rDxaZ6WVAi25zdo" name="Page-2">
    <mxGraphModel dx="1221" dy="725" grid="1" gridSize="10" guides="1" tooltips="1" connect="1" arrows="1" fold="1" page="1" pageScale="1" pageWidth="827" pageHeight="1169" math="0" shadow="0">
      <root>
        <mxCell id="0" />
        <mxCell id="1" parent="0" />
        <mxCell id="XhVnWk3iOjfRKKg5_4Ki-35" style="edgeStyle=orthogonalEdgeStyle;rounded=0;orthogonalLoop=1;jettySize=auto;html=1;exitX=0.5;exitY=1;exitDx=0;exitDy=0;entryX=0.5;entryY=0;entryDx=0;entryDy=0;" edge="1" parent="1" source="XhVnWk3iOjfRKKg5_4Ki-16" target="XhVnWk3iOjfRKKg5_4Ki-1">
          <mxGeometry relative="1" as="geometry" />
        </mxCell>
        <mxCell id="XhVnWk3iOjfRKKg5_4Ki-16" value="" style="rounded=1;whiteSpace=wrap;html=1;fillColor=none;dashed=1;dashPattern=8 8;sketch=1;curveFitting=1;jiggle=2;" vertex="1" parent="1">
          <mxGeometry x="330" y="330" width="180" height="180" as="geometry" />
        </mxCell>
        <mxCell id="XhVnWk3iOjfRKKg5_4Ki-23" value="" style="rounded=1;whiteSpace=wrap;html=1;fillColor=none;dashed=1;dashPattern=8 8;sketch=1;curveFitting=1;jiggle=2;" vertex="1" parent="1">
          <mxGeometry x="330" y="130" width="180" height="180" as="geometry" />
        </mxCell>
        <mxCell id="XhVnWk3iOjfRKKg5_4Ki-28" value="" style="edgeStyle=orthogonalEdgeStyle;rounded=0;orthogonalLoop=1;jettySize=auto;html=1;sketch=1;curveFitting=1;jiggle=2;" edge="1" parent="1" source="2IOwunykFNlBwdlOi-kW-3" target="XhVnWk3iOjfRKKg5_4Ki-23">
          <mxGeometry relative="1" as="geometry" />
        </mxCell>
        <mxCell id="2IOwunykFNlBwdlOi-kW-3" value="&lt;font style=&quot;font-size: 11px;&quot;&gt;Inputs&lt;/font&gt;&lt;div style=&quot;font-size: 11px;&quot;&gt;&lt;font style=&quot;font-size: 11px;&quot;&gt;32x32x3&lt;/font&gt;&lt;/div&gt;" style="ellipse;whiteSpace=wrap;html=1;fillColor=#d5e8d4;strokeColor=#82b366;shadow=1;sketch=1;curveFitting=1;jiggle=2;" vertex="1" parent="1">
          <mxGeometry x="380" y="30" width="80" height="70" as="geometry" />
        </mxCell>
        <mxCell id="2IOwunykFNlBwdlOi-kW-8" value="Output Layer, 100" style="rounded=1;whiteSpace=wrap;html=1;fillColor=#fad7ac;strokeColor=#b46504;sketch=1;curveFitting=1;jiggle=2;" vertex="1" parent="1">
          <mxGeometry x="350" y="730" width="140" height="40" as="geometry" />
        </mxCell>
        <mxCell id="urf6txy2-l8QIUBCMSN5-1" value="" style="rounded=1;whiteSpace=wrap;html=1;dashed=1;fillColor=none;sketch=1;curveFitting=1;jiggle=2;" vertex="1" parent="1">
          <mxGeometry x="340" y="340" width="160" height="110" as="geometry" />
        </mxCell>
        <mxCell id="urf6txy2-l8QIUBCMSN5-2" value="" style="edgeStyle=orthogonalEdgeStyle;rounded=0;orthogonalLoop=1;jettySize=auto;html=1;sketch=1;curveFitting=1;jiggle=2;" edge="1" parent="1" source="urf6txy2-l8QIUBCMSN5-3" target="urf6txy2-l8QIUBCMSN5-4">
          <mxGeometry relative="1" as="geometry" />
        </mxCell>
        <mxCell id="urf6txy2-l8QIUBCMSN5-3" value="Conv2D Layer" style="rounded=1;whiteSpace=wrap;html=1;fillColor=#dae8fc;strokeColor=#6c8ebf;sketch=1;curveFitting=1;jiggle=2;" vertex="1" parent="1">
          <mxGeometry x="350" y="350" width="140" height="40" as="geometry" />
        </mxCell>
        <mxCell id="XhVnWk3iOjfRKKg5_4Ki-15" value="" style="edgeStyle=orthogonalEdgeStyle;rounded=0;orthogonalLoop=1;jettySize=auto;html=1;entryX=0.5;entryY=0;entryDx=0;entryDy=0;sketch=1;curveFitting=1;jiggle=2;" edge="1" parent="1" source="urf6txy2-l8QIUBCMSN5-4" target="urf6txy2-l8QIUBCMSN5-5">
          <mxGeometry relative="1" as="geometry" />
        </mxCell>
        <mxCell id="urf6txy2-l8QIUBCMSN5-4" value="Tanh" style="shape=parallelogram;perimeter=parallelogramPerimeter;whiteSpace=wrap;html=1;fixedSize=1;fillColor=#b0e3e6;strokeColor=#0e8088;sketch=1;curveFitting=1;jiggle=2;" vertex="1" parent="1">
          <mxGeometry x="350" y="410" width="140" height="30" as="geometry" />
        </mxCell>
        <mxCell id="urf6txy2-l8QIUBCMSN5-5" value="Avg. Pooling" style="shape=hexagon;perimeter=hexagonPerimeter2;whiteSpace=wrap;html=1;fixedSize=1;fillColor=#fad9d5;strokeColor=#ae4132;sketch=1;curveFitting=1;jiggle=2;" vertex="1" parent="1">
          <mxGeometry x="350" y="470" width="140" height="30" as="geometry" />
        </mxCell>
        <mxCell id="XhVnWk3iOjfRKKg5_4Ki-5" value="" style="edgeStyle=orthogonalEdgeStyle;rounded=0;orthogonalLoop=1;jettySize=auto;html=1;sketch=1;curveFitting=1;jiggle=2;" edge="1" parent="1" source="XhVnWk3iOjfRKKg5_4Ki-1" target="XhVnWk3iOjfRKKg5_4Ki-3">
          <mxGeometry relative="1" as="geometry" />
        </mxCell>
        <mxCell id="XhVnWk3iOjfRKKg5_4Ki-1" value="FC Layer, 400" style="rounded=1;whiteSpace=wrap;html=1;fillColor=#fff2cc;strokeColor=#d6b656;glass=0;sketch=1;curveFitting=1;jiggle=2;" vertex="1" parent="1">
          <mxGeometry x="350" y="550" width="140" height="40" as="geometry" />
        </mxCell>
        <mxCell id="XhVnWk3iOjfRKKg5_4Ki-42" style="edgeStyle=orthogonalEdgeStyle;rounded=0;orthogonalLoop=1;jettySize=auto;html=1;exitX=0.5;exitY=1;exitDx=0;exitDy=0;entryX=0.5;entryY=0;entryDx=0;entryDy=0;" edge="1" parent="1" source="XhVnWk3iOjfRKKg5_4Ki-3" target="XhVnWk3iOjfRKKg5_4Ki-41">
          <mxGeometry relative="1" as="geometry" />
        </mxCell>
        <mxCell id="XhVnWk3iOjfRKKg5_4Ki-3" value="FC Layer, 120" style="rounded=1;whiteSpace=wrap;html=1;fillColor=#fff2cc;strokeColor=#d6b656;glass=0;sketch=1;curveFitting=1;jiggle=2;" vertex="1" parent="1">
          <mxGeometry x="350" y="610" width="140" height="40" as="geometry" />
        </mxCell>
        <mxCell id="XhVnWk3iOjfRKKg5_4Ki-17" value="" style="rounded=1;whiteSpace=wrap;html=1;dashed=1;fillColor=none;sketch=1;curveFitting=1;jiggle=2;" vertex="1" parent="1">
          <mxGeometry x="340" y="140" width="160" height="110" as="geometry" />
        </mxCell>
        <mxCell id="XhVnWk3iOjfRKKg5_4Ki-18" value="" style="edgeStyle=orthogonalEdgeStyle;rounded=0;orthogonalLoop=1;jettySize=auto;html=1;sketch=1;curveFitting=1;jiggle=2;" edge="1" parent="1" source="XhVnWk3iOjfRKKg5_4Ki-19" target="XhVnWk3iOjfRKKg5_4Ki-21">
          <mxGeometry relative="1" as="geometry" />
        </mxCell>
        <mxCell id="XhVnWk3iOjfRKKg5_4Ki-19" value="Conv2D Layer" style="rounded=1;whiteSpace=wrap;html=1;fillColor=#dae8fc;strokeColor=#6c8ebf;sketch=1;curveFitting=1;jiggle=2;" vertex="1" parent="1">
          <mxGeometry x="350" y="150" width="140" height="40" as="geometry" />
        </mxCell>
        <mxCell id="XhVnWk3iOjfRKKg5_4Ki-20" value="" style="edgeStyle=orthogonalEdgeStyle;rounded=0;orthogonalLoop=1;jettySize=auto;html=1;entryX=0.5;entryY=0;entryDx=0;entryDy=0;sketch=1;curveFitting=1;jiggle=2;" edge="1" parent="1" source="XhVnWk3iOjfRKKg5_4Ki-21" target="XhVnWk3iOjfRKKg5_4Ki-22">
          <mxGeometry relative="1" as="geometry" />
        </mxCell>
        <mxCell id="XhVnWk3iOjfRKKg5_4Ki-21" value="Tanh" style="shape=parallelogram;perimeter=parallelogramPerimeter;whiteSpace=wrap;html=1;fixedSize=1;fillColor=#b0e3e6;strokeColor=#0e8088;sketch=1;curveFitting=1;jiggle=2;" vertex="1" parent="1">
          <mxGeometry x="350" y="210" width="140" height="30" as="geometry" />
        </mxCell>
        <mxCell id="XhVnWk3iOjfRKKg5_4Ki-22" value="Avg. Pooling" style="shape=hexagon;perimeter=hexagonPerimeter2;whiteSpace=wrap;html=1;fixedSize=1;fillColor=#fad9d5;strokeColor=#ae4132;sketch=1;curveFitting=1;jiggle=2;" vertex="1" parent="1">
          <mxGeometry x="350" y="270" width="140" height="30" as="geometry" />
        </mxCell>
        <mxCell id="XhVnWk3iOjfRKKg5_4Ki-25" style="edgeStyle=orthogonalEdgeStyle;rounded=0;orthogonalLoop=1;jettySize=auto;html=1;exitX=0.5;exitY=1;exitDx=0;exitDy=0;sketch=1;curveFitting=1;jiggle=2;" edge="1" parent="1" source="XhVnWk3iOjfRKKg5_4Ki-23" target="XhVnWk3iOjfRKKg5_4Ki-16">
          <mxGeometry relative="1" as="geometry" />
        </mxCell>
        <mxCell id="XhVnWk3iOjfRKKg5_4Ki-36" value="Flatten" style="text;html=1;align=center;verticalAlign=middle;resizable=0;points=[];autosize=1;strokeColor=none;fillColor=none;" vertex="1" parent="1">
          <mxGeometry x="420" y="518" width="60" height="30" as="geometry" />
        </mxCell>
        <mxCell id="XhVnWk3iOjfRKKg5_4Ki-37" value="Kernel: 5x5&lt;div&gt;Filters: 6&lt;/div&gt;&lt;div&gt;Stride: 1&lt;br&gt;Padding: 0&lt;/div&gt;" style="text;html=1;align=center;verticalAlign=middle;resizable=0;points=[];autosize=1;fillColor=none;dashed=1;" vertex="1" parent="1">
          <mxGeometry x="530" y="185" width="80" height="70" as="geometry" />
        </mxCell>
        <mxCell id="XhVnWk3iOjfRKKg5_4Ki-38" value="14x14x6" style="text;html=1;align=center;verticalAlign=middle;resizable=0;points=[];autosize=1;fillColor=none;dashed=1;" vertex="1" parent="1">
          <mxGeometry x="235" y="205" width="70" height="30" as="geometry" />
        </mxCell>
        <mxCell id="XhVnWk3iOjfRKKg5_4Ki-39" value="5x5x16" style="text;html=1;align=center;verticalAlign=middle;resizable=0;points=[];autosize=1;fillColor=none;dashed=1;" vertex="1" parent="1">
          <mxGeometry x="240" y="410" width="60" height="30" as="geometry" />
        </mxCell>
        <mxCell id="XhVnWk3iOjfRKKg5_4Ki-40" value="Kernel: 5x5&lt;div&gt;Filters: 16&lt;/div&gt;&lt;div&gt;Stride: 1&lt;br&gt;Padding: 0&lt;/div&gt;" style="text;html=1;align=center;verticalAlign=middle;resizable=0;points=[];autosize=1;fillColor=none;dashed=1;" vertex="1" parent="1">
          <mxGeometry x="530" y="385" width="80" height="70" as="geometry" />
        </mxCell>
        <mxCell id="XhVnWk3iOjfRKKg5_4Ki-43" style="edgeStyle=orthogonalEdgeStyle;rounded=0;orthogonalLoop=1;jettySize=auto;html=1;exitX=0.5;exitY=1;exitDx=0;exitDy=0;entryX=0.5;entryY=0;entryDx=0;entryDy=0;" edge="1" parent="1" source="XhVnWk3iOjfRKKg5_4Ki-41" target="2IOwunykFNlBwdlOi-kW-8">
          <mxGeometry relative="1" as="geometry" />
        </mxCell>
        <mxCell id="XhVnWk3iOjfRKKg5_4Ki-41" value="FC Layer, 84" style="rounded=1;whiteSpace=wrap;html=1;fillColor=#fff2cc;strokeColor=#d6b656;glass=0;sketch=1;curveFitting=1;jiggle=2;" vertex="1" parent="1">
          <mxGeometry x="350" y="670" width="140" height="40" as="geometry" />
        </mxCell>
      </root>
    </mxGraphModel>
  </diagram>
  <diagram id="CmaxGMwuQwzftKCLlQi7" name="Page-3">
    <mxGraphModel dx="1221" dy="725" grid="1" gridSize="10" guides="1" tooltips="1" connect="1" arrows="1" fold="1" page="1" pageScale="1" pageWidth="827" pageHeight="1169" math="0" shadow="0">
      <root>
        <mxCell id="0" />
        <mxCell id="1" parent="0" />
        <mxCell id="408BmX71y01D9aSNj5J_-3" style="edgeStyle=orthogonalEdgeStyle;rounded=0;orthogonalLoop=1;jettySize=auto;html=1;exitX=0.5;exitY=1;exitDx=0;exitDy=0;entryX=0.5;entryY=0;entryDx=0;entryDy=0;" edge="1" parent="1" source="jOaeV7ecqRqm4AeN9VVK-1" target="jOaeV7ecqRqm4AeN9VVK-8">
          <mxGeometry relative="1" as="geometry" />
        </mxCell>
        <mxCell id="jOaeV7ecqRqm4AeN9VVK-1" value="" style="rounded=1;whiteSpace=wrap;html=1;dashed=1;sketch=1;curveFitting=1;jiggle=2;fillColor=none;strokeColor=#000000;" vertex="1" parent="1">
          <mxGeometry x="340" y="190" width="160" height="160" as="geometry" />
        </mxCell>
        <mxCell id="jOaeV7ecqRqm4AeN9VVK-2" style="edgeStyle=orthogonalEdgeStyle;rounded=0;orthogonalLoop=1;jettySize=auto;html=1;exitX=0.5;exitY=1;exitDx=0;exitDy=0;entryX=0.5;entryY=0;entryDx=0;entryDy=0;sketch=1;curveFitting=1;jiggle=2;" edge="1" parent="1" source="jOaeV7ecqRqm4AeN9VVK-3" target="jOaeV7ecqRqm4AeN9VVK-5">
          <mxGeometry relative="1" as="geometry" />
        </mxCell>
        <mxCell id="jOaeV7ecqRqm4AeN9VVK-3" value="&lt;font style=&quot;font-size: 11px;&quot;&gt;Inputs&lt;/font&gt;&lt;div style=&quot;font-size: 11px;&quot;&gt;&lt;font style=&quot;font-size: 11px;&quot;&gt;32x32x3&lt;/font&gt;&lt;/div&gt;" style="ellipse;whiteSpace=wrap;html=1;fillColor=#d5e8d4;strokeColor=#82b366;shadow=1;sketch=1;curveFitting=1;jiggle=2;" vertex="1" parent="1">
          <mxGeometry x="380" y="30" width="80" height="70" as="geometry" />
        </mxCell>
        <mxCell id="408BmX71y01D9aSNj5J_-2" style="edgeStyle=orthogonalEdgeStyle;rounded=0;orthogonalLoop=1;jettySize=auto;html=1;exitX=0.5;exitY=1;exitDx=0;exitDy=0;entryX=0.5;entryY=0;entryDx=0;entryDy=0;" edge="1" parent="1" source="jOaeV7ecqRqm4AeN9VVK-5" target="jOaeV7ecqRqm4AeN9VVK-1">
          <mxGeometry relative="1" as="geometry" />
        </mxCell>
        <mxCell id="jOaeV7ecqRqm4AeN9VVK-5" value="Input FC Layer,&amp;nbsp;&lt;span style=&quot;background-color: initial;&quot;&gt;3072&lt;/span&gt;" style="rounded=1;whiteSpace=wrap;html=1;fillColor=#fff2cc;strokeColor=#d6b656;glass=0;sketch=1;curveFitting=1;jiggle=2;" vertex="1" parent="1">
          <mxGeometry x="350" y="130" width="140" height="40" as="geometry" />
        </mxCell>
        <mxCell id="VV0DkNaMnrxJKYt13PkG-2" style="edgeStyle=orthogonalEdgeStyle;rounded=0;orthogonalLoop=1;jettySize=auto;html=1;exitX=0.5;exitY=1;exitDx=0;exitDy=0;entryX=0.5;entryY=0;entryDx=0;entryDy=0;" edge="1" parent="1" source="jOaeV7ecqRqm4AeN9VVK-7" target="VV0DkNaMnrxJKYt13PkG-1">
          <mxGeometry relative="1" as="geometry" />
        </mxCell>
        <mxCell id="jOaeV7ecqRqm4AeN9VVK-7" value="FC Layer,&amp;nbsp;&lt;span style=&quot;background-color: initial;&quot;&gt;768&lt;/span&gt;" style="rounded=1;whiteSpace=wrap;html=1;fillColor=#fff2cc;strokeColor=#d6b656;sketch=1;curveFitting=1;jiggle=2;" vertex="1" parent="1">
          <mxGeometry x="350" y="200" width="140" height="40" as="geometry" />
        </mxCell>
        <mxCell id="jOaeV7ecqRqm4AeN9VVK-8" value="Output Layer, 100" style="rounded=1;whiteSpace=wrap;html=1;fillColor=#fad7ac;strokeColor=#b46504;sketch=1;curveFitting=1;jiggle=2;" vertex="1" parent="1">
          <mxGeometry x="350" y="370" width="140" height="40" as="geometry" />
        </mxCell>
        <mxCell id="jOaeV7ecqRqm4AeN9VVK-9" value="Flatten" style="text;html=1;align=center;verticalAlign=middle;resizable=0;points=[];autosize=1;strokeColor=none;fillColor=none;sketch=1;curveFitting=1;jiggle=2;" vertex="1" parent="1">
          <mxGeometry x="420" y="100" width="60" height="30" as="geometry" />
        </mxCell>
        <mxCell id="jOaeV7ecqRqm4AeN9VVK-11" value="ReLU" style="shape=parallelogram;perimeter=parallelogramPerimeter;whiteSpace=wrap;html=1;fixedSize=1;fillColor=#b0e3e6;strokeColor=#0e8088;sketch=1;curveFitting=1;jiggle=2;" vertex="1" parent="1">
          <mxGeometry x="350" y="310" width="140" height="30" as="geometry" />
        </mxCell>
        <mxCell id="VV0DkNaMnrxJKYt13PkG-3" style="edgeStyle=orthogonalEdgeStyle;rounded=0;orthogonalLoop=1;jettySize=auto;html=1;exitX=0.5;exitY=1;exitDx=0;exitDy=0;entryX=0.5;entryY=0;entryDx=0;entryDy=0;" edge="1" parent="1" source="VV0DkNaMnrxJKYt13PkG-1" target="jOaeV7ecqRqm4AeN9VVK-11">
          <mxGeometry relative="1" as="geometry" />
        </mxCell>
        <mxCell id="VV0DkNaMnrxJKYt13PkG-1" value="Batch Norm" style="shape=hexagon;perimeter=hexagonPerimeter2;whiteSpace=wrap;html=1;fixedSize=1;fillColor=#fad9d5;strokeColor=#ae4132;sketch=1;curveFitting=1;jiggle=2;" vertex="1" parent="1">
          <mxGeometry x="350" y="260" width="140" height="30" as="geometry" />
        </mxCell>
        <mxCell id="rfQE2Aaf7MoOVti5jIdt-1" value="Hidden Layer" style="text;html=1;align=center;verticalAlign=middle;resizable=0;points=[];autosize=1;strokeColor=none;fillColor=none;" vertex="1" parent="1">
          <mxGeometry x="500" y="255" width="90" height="30" as="geometry" />
        </mxCell>
      </root>
    </mxGraphModel>
  </diagram>
  <diagram id="EIDM0sQ17pCo_LnPxwKx" name="Page-4">
    <mxGraphModel dx="1221" dy="725" grid="1" gridSize="10" guides="1" tooltips="1" connect="1" arrows="1" fold="1" page="1" pageScale="1" pageWidth="827" pageHeight="1169" math="0" shadow="0">
      <root>
        <mxCell id="0" />
        <mxCell id="1" parent="0" />
        <mxCell id="L5jsfElqeeYmg9VJ02hE-2" style="edgeStyle=orthogonalEdgeStyle;rounded=0;orthogonalLoop=1;jettySize=auto;html=1;exitX=0.5;exitY=1;exitDx=0;exitDy=0;entryX=0.5;entryY=0;entryDx=0;entryDy=0;" edge="1" parent="1" source="x5fziaTO1QeqdSN_pGc7-5" target="x5fziaTO1QeqdSN_pGc7-17">
          <mxGeometry relative="1" as="geometry" />
        </mxCell>
        <mxCell id="x5fziaTO1QeqdSN_pGc7-5" value="&lt;font style=&quot;font-size: 11px;&quot;&gt;Inputs&lt;/font&gt;&lt;div style=&quot;font-size: 11px;&quot;&gt;&lt;font style=&quot;font-size: 11px;&quot;&gt;32x32x3&lt;/font&gt;&lt;/div&gt;" style="ellipse;whiteSpace=wrap;html=1;fillColor=#d5e8d4;strokeColor=#82b366;shadow=1;sketch=1;curveFitting=1;jiggle=2;" vertex="1" parent="1">
          <mxGeometry x="380" y="30" width="80" height="70" as="geometry" />
        </mxCell>
        <mxCell id="x5fziaTO1QeqdSN_pGc7-6" value="Output Layer, 100" style="rounded=1;whiteSpace=wrap;html=1;fillColor=#fad7ac;strokeColor=#b46504;sketch=1;curveFitting=1;jiggle=2;" vertex="1" parent="1">
          <mxGeometry x="350" y="770" width="140" height="40" as="geometry" />
        </mxCell>
        <mxCell id="x5fziaTO1QeqdSN_pGc7-13" value="" style="edgeStyle=orthogonalEdgeStyle;rounded=0;orthogonalLoop=1;jettySize=auto;html=1;sketch=1;curveFitting=1;jiggle=2;" edge="1" parent="1" source="x5fziaTO1QeqdSN_pGc7-14" target="x5fziaTO1QeqdSN_pGc7-16">
          <mxGeometry relative="1" as="geometry" />
        </mxCell>
        <mxCell id="x5fziaTO1QeqdSN_pGc7-14" value="FC Layer, 400" style="rounded=1;whiteSpace=wrap;html=1;fillColor=#fff2cc;strokeColor=#d6b656;glass=0;sketch=1;curveFitting=1;jiggle=2;" vertex="1" parent="1">
          <mxGeometry x="350" y="590" width="140" height="40" as="geometry" />
        </mxCell>
        <mxCell id="x5fziaTO1QeqdSN_pGc7-15" style="edgeStyle=orthogonalEdgeStyle;rounded=0;orthogonalLoop=1;jettySize=auto;html=1;exitX=0.5;exitY=1;exitDx=0;exitDy=0;entryX=0.5;entryY=0;entryDx=0;entryDy=0;" edge="1" parent="1" source="x5fziaTO1QeqdSN_pGc7-16" target="x5fziaTO1QeqdSN_pGc7-30">
          <mxGeometry relative="1" as="geometry" />
        </mxCell>
        <mxCell id="x5fziaTO1QeqdSN_pGc7-16" value="FC Layer, 120" style="rounded=1;whiteSpace=wrap;html=1;fillColor=#fff2cc;strokeColor=#d6b656;glass=0;sketch=1;curveFitting=1;jiggle=2;" vertex="1" parent="1">
          <mxGeometry x="350" y="650" width="140" height="40" as="geometry" />
        </mxCell>
        <mxCell id="x5fziaTO1QeqdSN_pGc7-17" value="" style="rounded=1;whiteSpace=wrap;html=1;dashed=1;fillColor=none;sketch=1;curveFitting=1;jiggle=2;" vertex="1" parent="1">
          <mxGeometry x="340" y="120" width="160" height="160" as="geometry" />
        </mxCell>
        <mxCell id="6Fke0-J4ZHX48T0b_KKR-1" style="edgeStyle=orthogonalEdgeStyle;rounded=0;orthogonalLoop=1;jettySize=auto;html=1;exitX=0.5;exitY=1;exitDx=0;exitDy=0;entryX=0.5;entryY=0;entryDx=0;entryDy=0;" edge="1" parent="1" source="x5fziaTO1QeqdSN_pGc7-19" target="gazTsgRr4duk3_bsm2q2-2">
          <mxGeometry relative="1" as="geometry" />
        </mxCell>
        <mxCell id="x5fziaTO1QeqdSN_pGc7-19" value="Conv2D Layer" style="rounded=1;whiteSpace=wrap;html=1;fillColor=#dae8fc;strokeColor=#6c8ebf;sketch=1;curveFitting=1;jiggle=2;" vertex="1" parent="1">
          <mxGeometry x="350" y="130" width="140" height="40" as="geometry" />
        </mxCell>
        <mxCell id="x5fziaTO1QeqdSN_pGc7-20" value="" style="edgeStyle=orthogonalEdgeStyle;rounded=0;orthogonalLoop=1;jettySize=auto;html=1;entryX=0.5;entryY=0;entryDx=0;entryDy=0;sketch=1;curveFitting=1;jiggle=2;" edge="1" parent="1" source="x5fziaTO1QeqdSN_pGc7-21" target="x5fziaTO1QeqdSN_pGc7-22">
          <mxGeometry relative="1" as="geometry" />
        </mxCell>
        <mxCell id="x5fziaTO1QeqdSN_pGc7-21" value="Tanh" style="shape=parallelogram;perimeter=parallelogramPerimeter;whiteSpace=wrap;html=1;fixedSize=1;fillColor=#b0e3e6;strokeColor=#0e8088;sketch=1;curveFitting=1;jiggle=2;" vertex="1" parent="1">
          <mxGeometry x="350" y="235" width="140" height="30" as="geometry" />
        </mxCell>
        <mxCell id="6Fke0-J4ZHX48T0b_KKR-14" style="edgeStyle=orthogonalEdgeStyle;rounded=0;orthogonalLoop=1;jettySize=auto;html=1;exitX=0.5;exitY=1;exitDx=0;exitDy=0;entryX=0.5;entryY=0;entryDx=0;entryDy=0;" edge="1" parent="1" source="x5fziaTO1QeqdSN_pGc7-22" target="6Fke0-J4ZHX48T0b_KKR-6">
          <mxGeometry relative="1" as="geometry" />
        </mxCell>
        <mxCell id="x5fziaTO1QeqdSN_pGc7-22" value="Avg. Pooling" style="shape=hexagon;perimeter=hexagonPerimeter2;whiteSpace=wrap;html=1;fixedSize=1;fillColor=#fad9d5;strokeColor=#ae4132;sketch=1;curveFitting=1;jiggle=2;" vertex="1" parent="1">
          <mxGeometry x="350" y="300" width="140" height="30" as="geometry" />
        </mxCell>
        <mxCell id="x5fziaTO1QeqdSN_pGc7-24" value="Flatten" style="text;html=1;align=center;verticalAlign=middle;resizable=0;points=[];autosize=1;strokeColor=none;fillColor=none;" vertex="1" parent="1">
          <mxGeometry x="420" y="554.5" width="60" height="30" as="geometry" />
        </mxCell>
        <mxCell id="x5fziaTO1QeqdSN_pGc7-25" value="Kernel: 5x5&lt;div&gt;Filters: 6&lt;/div&gt;&lt;div&gt;Stride: 1&lt;br&gt;Padding: 0&lt;/div&gt;" style="text;html=1;align=center;verticalAlign=middle;resizable=0;points=[];autosize=1;fillColor=none;dashed=1;" vertex="1" parent="1">
          <mxGeometry x="510" y="165" width="80" height="70" as="geometry" />
        </mxCell>
        <mxCell id="x5fziaTO1QeqdSN_pGc7-26" value="14x14x6" style="text;html=1;align=center;verticalAlign=middle;resizable=0;points=[];autosize=1;fillColor=none;dashed=1;" vertex="1" parent="1">
          <mxGeometry x="260" y="205" width="70" height="30" as="geometry" />
        </mxCell>
        <mxCell id="x5fziaTO1QeqdSN_pGc7-29" style="edgeStyle=orthogonalEdgeStyle;rounded=0;orthogonalLoop=1;jettySize=auto;html=1;exitX=0.5;exitY=1;exitDx=0;exitDy=0;entryX=0.5;entryY=0;entryDx=0;entryDy=0;" edge="1" parent="1" source="x5fziaTO1QeqdSN_pGc7-30" target="x5fziaTO1QeqdSN_pGc7-6">
          <mxGeometry relative="1" as="geometry" />
        </mxCell>
        <mxCell id="x5fziaTO1QeqdSN_pGc7-30" value="FC Layer, 84" style="rounded=1;whiteSpace=wrap;html=1;fillColor=#fff2cc;strokeColor=#d6b656;glass=0;sketch=1;curveFitting=1;jiggle=2;" vertex="1" parent="1">
          <mxGeometry x="350" y="710" width="140" height="40" as="geometry" />
        </mxCell>
        <mxCell id="6Fke0-J4ZHX48T0b_KKR-2" style="edgeStyle=orthogonalEdgeStyle;rounded=0;orthogonalLoop=1;jettySize=auto;html=1;exitX=0.5;exitY=1;exitDx=0;exitDy=0;entryX=0.5;entryY=0;entryDx=0;entryDy=0;" edge="1" parent="1" source="gazTsgRr4duk3_bsm2q2-2" target="x5fziaTO1QeqdSN_pGc7-21">
          <mxGeometry relative="1" as="geometry" />
        </mxCell>
        <mxCell id="gazTsgRr4duk3_bsm2q2-2" value="Batch Norm" style="shape=hexagon;perimeter=hexagonPerimeter2;whiteSpace=wrap;html=1;fixedSize=1;fillColor=#fad9d5;strokeColor=#ae4132;sketch=1;curveFitting=1;jiggle=2;" vertex="1" parent="1">
          <mxGeometry x="350" y="185" width="140" height="30" as="geometry" />
        </mxCell>
        <mxCell id="6Fke0-J4ZHX48T0b_KKR-4" value="" style="rounded=1;whiteSpace=wrap;html=1;dashed=1;fillColor=none;sketch=1;curveFitting=1;jiggle=2;" vertex="1" parent="1">
          <mxGeometry x="340" y="350" width="160" height="160" as="geometry" />
        </mxCell>
        <mxCell id="6Fke0-J4ZHX48T0b_KKR-5" style="edgeStyle=orthogonalEdgeStyle;rounded=0;orthogonalLoop=1;jettySize=auto;html=1;exitX=0.5;exitY=1;exitDx=0;exitDy=0;entryX=0.5;entryY=0;entryDx=0;entryDy=0;" edge="1" parent="1" source="6Fke0-J4ZHX48T0b_KKR-6" target="6Fke0-J4ZHX48T0b_KKR-13">
          <mxGeometry relative="1" as="geometry" />
        </mxCell>
        <mxCell id="6Fke0-J4ZHX48T0b_KKR-6" value="Conv2D Layer" style="rounded=1;whiteSpace=wrap;html=1;fillColor=#dae8fc;strokeColor=#6c8ebf;sketch=1;curveFitting=1;jiggle=2;" vertex="1" parent="1">
          <mxGeometry x="350" y="360" width="140" height="40" as="geometry" />
        </mxCell>
        <mxCell id="6Fke0-J4ZHX48T0b_KKR-7" value="" style="edgeStyle=orthogonalEdgeStyle;rounded=0;orthogonalLoop=1;jettySize=auto;html=1;entryX=0.5;entryY=0;entryDx=0;entryDy=0;sketch=1;curveFitting=1;jiggle=2;" edge="1" parent="1" source="6Fke0-J4ZHX48T0b_KKR-8" target="6Fke0-J4ZHX48T0b_KKR-9">
          <mxGeometry relative="1" as="geometry" />
        </mxCell>
        <mxCell id="6Fke0-J4ZHX48T0b_KKR-8" value="Tanh" style="shape=parallelogram;perimeter=parallelogramPerimeter;whiteSpace=wrap;html=1;fixedSize=1;fillColor=#b0e3e6;strokeColor=#0e8088;sketch=1;curveFitting=1;jiggle=2;" vertex="1" parent="1">
          <mxGeometry x="350" y="465" width="140" height="30" as="geometry" />
        </mxCell>
        <mxCell id="L5jsfElqeeYmg9VJ02hE-1" style="edgeStyle=orthogonalEdgeStyle;rounded=0;orthogonalLoop=1;jettySize=auto;html=1;exitX=0.5;exitY=1;exitDx=0;exitDy=0;entryX=0.5;entryY=0;entryDx=0;entryDy=0;" edge="1" parent="1" source="6Fke0-J4ZHX48T0b_KKR-9" target="x5fziaTO1QeqdSN_pGc7-14">
          <mxGeometry relative="1" as="geometry" />
        </mxCell>
        <mxCell id="6Fke0-J4ZHX48T0b_KKR-9" value="Avg. Pooling" style="shape=hexagon;perimeter=hexagonPerimeter2;whiteSpace=wrap;html=1;fixedSize=1;fillColor=#fad9d5;strokeColor=#ae4132;sketch=1;curveFitting=1;jiggle=2;" vertex="1" parent="1">
          <mxGeometry x="350" y="524.5" width="140" height="30" as="geometry" />
        </mxCell>
        <mxCell id="6Fke0-J4ZHX48T0b_KKR-10" value="Kernel: 5x5&lt;div&gt;Filters: 16&lt;/div&gt;&lt;div&gt;Stride: 1&lt;br&gt;Padding: 0&lt;/div&gt;" style="text;html=1;align=center;verticalAlign=middle;resizable=0;points=[];autosize=1;fillColor=none;dashed=1;" vertex="1" parent="1">
          <mxGeometry x="510" y="395" width="80" height="70" as="geometry" />
        </mxCell>
        <mxCell id="6Fke0-J4ZHX48T0b_KKR-11" value="5x5x16" style="text;html=1;align=center;verticalAlign=middle;resizable=0;points=[];autosize=1;fillColor=none;dashed=1;" vertex="1" parent="1">
          <mxGeometry x="270" y="415" width="60" height="30" as="geometry" />
        </mxCell>
        <mxCell id="6Fke0-J4ZHX48T0b_KKR-12" style="edgeStyle=orthogonalEdgeStyle;rounded=0;orthogonalLoop=1;jettySize=auto;html=1;exitX=0.5;exitY=1;exitDx=0;exitDy=0;entryX=0.5;entryY=0;entryDx=0;entryDy=0;" edge="1" parent="1" source="6Fke0-J4ZHX48T0b_KKR-13" target="6Fke0-J4ZHX48T0b_KKR-8">
          <mxGeometry relative="1" as="geometry" />
        </mxCell>
        <mxCell id="6Fke0-J4ZHX48T0b_KKR-13" value="Batch Norm" style="shape=hexagon;perimeter=hexagonPerimeter2;whiteSpace=wrap;html=1;fixedSize=1;fillColor=#fad9d5;strokeColor=#ae4132;sketch=1;curveFitting=1;jiggle=2;" vertex="1" parent="1">
          <mxGeometry x="350" y="415" width="140" height="30" as="geometry" />
        </mxCell>
      </root>
    </mxGraphModel>
  </diagram>
  <diagram id="BrgRCPmT1KN3mOIb-dYy" name="Page-5">
    <mxGraphModel dx="1221" dy="725" grid="1" gridSize="10" guides="1" tooltips="1" connect="1" arrows="1" fold="1" page="1" pageScale="1" pageWidth="827" pageHeight="1169" math="0" shadow="0">
      <root>
        <mxCell id="0" />
        <mxCell id="1" parent="0" />
        <mxCell id="TFpsL-V1HZYDbfXuSaT9-3" style="edgeStyle=orthogonalEdgeStyle;rounded=0;orthogonalLoop=1;jettySize=auto;html=1;exitX=0.5;exitY=1;exitDx=0;exitDy=0;entryX=0.5;entryY=0;entryDx=0;entryDy=0;" edge="1" parent="1" source="z33MWp9mNh7eNpvnp5NN-1" target="TFpsL-V1HZYDbfXuSaT9-1">
          <mxGeometry relative="1" as="geometry" />
        </mxCell>
        <mxCell id="z33MWp9mNh7eNpvnp5NN-1" value="" style="rounded=1;whiteSpace=wrap;html=1;dashed=1;sketch=1;curveFitting=1;jiggle=2;fillColor=none;" vertex="1" parent="1">
          <mxGeometry x="340" y="190" width="160" height="160" as="geometry" />
        </mxCell>
        <mxCell id="z33MWp9mNh7eNpvnp5NN-2" style="edgeStyle=orthogonalEdgeStyle;rounded=0;orthogonalLoop=1;jettySize=auto;html=1;exitX=0.5;exitY=1;exitDx=0;exitDy=0;entryX=0.5;entryY=0;entryDx=0;entryDy=0;sketch=1;curveFitting=1;jiggle=2;" edge="1" parent="1" source="z33MWp9mNh7eNpvnp5NN-3" target="z33MWp9mNh7eNpvnp5NN-5">
          <mxGeometry relative="1" as="geometry" />
        </mxCell>
        <mxCell id="z33MWp9mNh7eNpvnp5NN-3" value="&lt;font style=&quot;font-size: 11px;&quot;&gt;Inputs&lt;/font&gt;&lt;div style=&quot;font-size: 11px;&quot;&gt;&lt;font style=&quot;font-size: 11px;&quot;&gt;32x32x3&lt;/font&gt;&lt;/div&gt;" style="ellipse;whiteSpace=wrap;html=1;fillColor=#d5e8d4;strokeColor=#82b366;shadow=1;sketch=1;curveFitting=1;jiggle=2;" vertex="1" parent="1">
          <mxGeometry x="380" y="30" width="80" height="70" as="geometry" />
        </mxCell>
        <mxCell id="z33MWp9mNh7eNpvnp5NN-28" style="edgeStyle=orthogonalEdgeStyle;rounded=0;orthogonalLoop=1;jettySize=auto;html=1;exitX=0.5;exitY=1;exitDx=0;exitDy=0;entryX=0.5;entryY=0;entryDx=0;entryDy=0;" edge="1" parent="1" source="z33MWp9mNh7eNpvnp5NN-5" target="z33MWp9mNh7eNpvnp5NN-1">
          <mxGeometry relative="1" as="geometry" />
        </mxCell>
        <mxCell id="z33MWp9mNh7eNpvnp5NN-5" value="Input FC Layer,&amp;nbsp;&lt;span style=&quot;background-color: initial;&quot;&gt;3072&lt;/span&gt;" style="rounded=1;whiteSpace=wrap;html=1;fillColor=#fff2cc;strokeColor=#d6b656;glass=0;sketch=1;curveFitting=1;jiggle=2;" vertex="1" parent="1">
          <mxGeometry x="350" y="130" width="140" height="40" as="geometry" />
        </mxCell>
        <mxCell id="z33MWp9mNh7eNpvnp5NN-6" style="edgeStyle=orthogonalEdgeStyle;rounded=0;orthogonalLoop=1;jettySize=auto;html=1;exitX=0.5;exitY=1;exitDx=0;exitDy=0;entryX=0.5;entryY=0;entryDx=0;entryDy=0;" edge="1" parent="1" source="z33MWp9mNh7eNpvnp5NN-7" target="z33MWp9mNh7eNpvnp5NN-13">
          <mxGeometry relative="1" as="geometry" />
        </mxCell>
        <mxCell id="z33MWp9mNh7eNpvnp5NN-7" value="FC Layer,&amp;nbsp;&lt;span style=&quot;background-color: initial;&quot;&gt;1536&lt;/span&gt;" style="rounded=1;whiteSpace=wrap;html=1;fillColor=#fff2cc;strokeColor=#d6b656;sketch=1;curveFitting=1;jiggle=2;" vertex="1" parent="1">
          <mxGeometry x="350" y="200" width="140" height="40" as="geometry" />
        </mxCell>
        <mxCell id="z33MWp9mNh7eNpvnp5NN-8" value="Output Layer, 100" style="rounded=1;whiteSpace=wrap;html=1;fillColor=#fad7ac;strokeColor=#b46504;sketch=1;curveFitting=1;jiggle=2;" vertex="1" parent="1">
          <mxGeometry x="350" y="880" width="140" height="40" as="geometry" />
        </mxCell>
        <mxCell id="z33MWp9mNh7eNpvnp5NN-9" value="Flatten" style="text;html=1;align=center;verticalAlign=middle;resizable=0;points=[];autosize=1;strokeColor=none;fillColor=none;sketch=1;curveFitting=1;jiggle=2;" vertex="1" parent="1">
          <mxGeometry x="420" y="100" width="60" height="30" as="geometry" />
        </mxCell>
        <mxCell id="z33MWp9mNh7eNpvnp5NN-11" value="LeakyReLU" style="shape=parallelogram;perimeter=parallelogramPerimeter;whiteSpace=wrap;html=1;fixedSize=1;fillColor=#b0e3e6;strokeColor=#0e8088;sketch=1;curveFitting=1;jiggle=2;" vertex="1" parent="1">
          <mxGeometry x="350" y="310" width="140" height="30" as="geometry" />
        </mxCell>
        <mxCell id="z33MWp9mNh7eNpvnp5NN-12" style="edgeStyle=orthogonalEdgeStyle;rounded=0;orthogonalLoop=1;jettySize=auto;html=1;exitX=0.5;exitY=1;exitDx=0;exitDy=0;entryX=0.5;entryY=0;entryDx=0;entryDy=0;" edge="1" parent="1" source="z33MWp9mNh7eNpvnp5NN-13" target="z33MWp9mNh7eNpvnp5NN-11">
          <mxGeometry relative="1" as="geometry" />
        </mxCell>
        <mxCell id="z33MWp9mNh7eNpvnp5NN-13" value="Batch Norm" style="shape=hexagon;perimeter=hexagonPerimeter2;whiteSpace=wrap;html=1;fixedSize=1;fillColor=#fad9d5;strokeColor=#ae4132;sketch=1;curveFitting=1;jiggle=2;" vertex="1" parent="1">
          <mxGeometry x="350" y="260" width="140" height="30" as="geometry" />
        </mxCell>
        <mxCell id="TFpsL-V1HZYDbfXuSaT9-5" style="edgeStyle=orthogonalEdgeStyle;rounded=0;orthogonalLoop=1;jettySize=auto;html=1;exitX=0.5;exitY=1;exitDx=0;exitDy=0;entryX=0.5;entryY=0;entryDx=0;entryDy=0;" edge="1" parent="1" source="z33MWp9mNh7eNpvnp5NN-14" target="TFpsL-V1HZYDbfXuSaT9-4">
          <mxGeometry relative="1" as="geometry" />
        </mxCell>
        <mxCell id="z33MWp9mNh7eNpvnp5NN-14" value="" style="rounded=1;whiteSpace=wrap;html=1;dashed=1;sketch=1;curveFitting=1;jiggle=2;fillColor=none;" vertex="1" parent="1">
          <mxGeometry x="340" y="420" width="160" height="160" as="geometry" />
        </mxCell>
        <mxCell id="z33MWp9mNh7eNpvnp5NN-15" style="edgeStyle=orthogonalEdgeStyle;rounded=0;orthogonalLoop=1;jettySize=auto;html=1;exitX=0.5;exitY=1;exitDx=0;exitDy=0;entryX=0.5;entryY=0;entryDx=0;entryDy=0;" edge="1" parent="1" source="z33MWp9mNh7eNpvnp5NN-16" target="z33MWp9mNh7eNpvnp5NN-19">
          <mxGeometry relative="1" as="geometry" />
        </mxCell>
        <mxCell id="z33MWp9mNh7eNpvnp5NN-16" value="FC Layer,&amp;nbsp;&lt;span style=&quot;background-color: initial;&quot;&gt;768&lt;/span&gt;" style="rounded=1;whiteSpace=wrap;html=1;fillColor=#fff2cc;strokeColor=#d6b656;sketch=1;curveFitting=1;jiggle=2;" vertex="1" parent="1">
          <mxGeometry x="350" y="430" width="140" height="40" as="geometry" />
        </mxCell>
        <mxCell id="z33MWp9mNh7eNpvnp5NN-17" value="LeakyReLU" style="shape=parallelogram;perimeter=parallelogramPerimeter;whiteSpace=wrap;html=1;fixedSize=1;fillColor=#b0e3e6;strokeColor=#0e8088;sketch=1;curveFitting=1;jiggle=2;" vertex="1" parent="1">
          <mxGeometry x="350" y="540" width="140" height="30" as="geometry" />
        </mxCell>
        <mxCell id="z33MWp9mNh7eNpvnp5NN-18" style="edgeStyle=orthogonalEdgeStyle;rounded=0;orthogonalLoop=1;jettySize=auto;html=1;exitX=0.5;exitY=1;exitDx=0;exitDy=0;entryX=0.5;entryY=0;entryDx=0;entryDy=0;" edge="1" parent="1" source="z33MWp9mNh7eNpvnp5NN-19" target="z33MWp9mNh7eNpvnp5NN-17">
          <mxGeometry relative="1" as="geometry" />
        </mxCell>
        <mxCell id="z33MWp9mNh7eNpvnp5NN-19" value="Batch Norm" style="shape=hexagon;perimeter=hexagonPerimeter2;whiteSpace=wrap;html=1;fixedSize=1;fillColor=#fad9d5;strokeColor=#ae4132;sketch=1;curveFitting=1;jiggle=2;" vertex="1" parent="1">
          <mxGeometry x="350" y="490" width="140" height="30" as="geometry" />
        </mxCell>
        <mxCell id="TFpsL-V1HZYDbfXuSaT9-9" style="edgeStyle=orthogonalEdgeStyle;rounded=0;orthogonalLoop=1;jettySize=auto;html=1;exitX=0.5;exitY=1;exitDx=0;exitDy=0;entryX=0.5;entryY=0;entryDx=0;entryDy=0;" edge="1" parent="1" source="z33MWp9mNh7eNpvnp5NN-20" target="TFpsL-V1HZYDbfXuSaT9-7">
          <mxGeometry relative="1" as="geometry" />
        </mxCell>
        <mxCell id="z33MWp9mNh7eNpvnp5NN-20" value="" style="rounded=1;whiteSpace=wrap;html=1;dashed=1;sketch=1;curveFitting=1;jiggle=2;fillColor=none;" vertex="1" parent="1">
          <mxGeometry x="340" y="650" width="160" height="160" as="geometry" />
        </mxCell>
        <mxCell id="z33MWp9mNh7eNpvnp5NN-21" style="edgeStyle=orthogonalEdgeStyle;rounded=0;orthogonalLoop=1;jettySize=auto;html=1;exitX=0.5;exitY=1;exitDx=0;exitDy=0;entryX=0.5;entryY=0;entryDx=0;entryDy=0;" edge="1" parent="1" source="z33MWp9mNh7eNpvnp5NN-22" target="z33MWp9mNh7eNpvnp5NN-25">
          <mxGeometry relative="1" as="geometry" />
        </mxCell>
        <mxCell id="z33MWp9mNh7eNpvnp5NN-22" value="FC Layer,&amp;nbsp;&lt;span style=&quot;background-color: initial;&quot;&gt;256&lt;/span&gt;" style="rounded=1;whiteSpace=wrap;html=1;fillColor=#fff2cc;strokeColor=#d6b656;sketch=1;curveFitting=1;jiggle=2;" vertex="1" parent="1">
          <mxGeometry x="350" y="660" width="140" height="40" as="geometry" />
        </mxCell>
        <mxCell id="z33MWp9mNh7eNpvnp5NN-23" value="LeakyReLU" style="shape=parallelogram;perimeter=parallelogramPerimeter;whiteSpace=wrap;html=1;fixedSize=1;fillColor=#b0e3e6;strokeColor=#0e8088;sketch=1;curveFitting=1;jiggle=2;" vertex="1" parent="1">
          <mxGeometry x="350" y="770" width="140" height="30" as="geometry" />
        </mxCell>
        <mxCell id="z33MWp9mNh7eNpvnp5NN-24" style="edgeStyle=orthogonalEdgeStyle;rounded=0;orthogonalLoop=1;jettySize=auto;html=1;exitX=0.5;exitY=1;exitDx=0;exitDy=0;entryX=0.5;entryY=0;entryDx=0;entryDy=0;" edge="1" parent="1" source="z33MWp9mNh7eNpvnp5NN-25" target="z33MWp9mNh7eNpvnp5NN-23">
          <mxGeometry relative="1" as="geometry" />
        </mxCell>
        <mxCell id="z33MWp9mNh7eNpvnp5NN-25" value="Batch Norm" style="shape=hexagon;perimeter=hexagonPerimeter2;whiteSpace=wrap;html=1;fixedSize=1;fillColor=#fad9d5;strokeColor=#ae4132;sketch=1;curveFitting=1;jiggle=2;" vertex="1" parent="1">
          <mxGeometry x="350" y="720" width="140" height="30" as="geometry" />
        </mxCell>
        <mxCell id="TFpsL-V1HZYDbfXuSaT9-2" style="edgeStyle=orthogonalEdgeStyle;rounded=0;orthogonalLoop=1;jettySize=auto;html=1;exitX=0.5;exitY=1;exitDx=0;exitDy=0;entryX=0.5;entryY=0;entryDx=0;entryDy=0;" edge="1" parent="1" source="TFpsL-V1HZYDbfXuSaT9-1" target="z33MWp9mNh7eNpvnp5NN-14">
          <mxGeometry relative="1" as="geometry" />
        </mxCell>
        <mxCell id="TFpsL-V1HZYDbfXuSaT9-1" value="Dropout: 20%" style="shape=parallelogram;perimeter=parallelogramPerimeter;whiteSpace=wrap;html=1;fixedSize=1;fillColor=#dae8fc;strokeColor=#6c8ebf;sketch=1;curveFitting=1;jiggle=2;" vertex="1" parent="1">
          <mxGeometry x="350" y="370" width="140" height="30" as="geometry" />
        </mxCell>
        <mxCell id="TFpsL-V1HZYDbfXuSaT9-6" style="edgeStyle=orthogonalEdgeStyle;rounded=0;orthogonalLoop=1;jettySize=auto;html=1;exitX=0.5;exitY=1;exitDx=0;exitDy=0;entryX=0.5;entryY=0;entryDx=0;entryDy=0;" edge="1" parent="1" source="TFpsL-V1HZYDbfXuSaT9-4" target="z33MWp9mNh7eNpvnp5NN-20">
          <mxGeometry relative="1" as="geometry" />
        </mxCell>
        <mxCell id="TFpsL-V1HZYDbfXuSaT9-4" value="Dropout: 20%" style="shape=parallelogram;perimeter=parallelogramPerimeter;whiteSpace=wrap;html=1;fixedSize=1;fillColor=#dae8fc;strokeColor=#6c8ebf;sketch=1;curveFitting=1;jiggle=2;" vertex="1" parent="1">
          <mxGeometry x="350" y="600" width="140" height="30" as="geometry" />
        </mxCell>
        <mxCell id="TFpsL-V1HZYDbfXuSaT9-8" style="edgeStyle=orthogonalEdgeStyle;rounded=0;orthogonalLoop=1;jettySize=auto;html=1;exitX=0.5;exitY=1;exitDx=0;exitDy=0;entryX=0.5;entryY=0;entryDx=0;entryDy=0;" edge="1" parent="1" source="TFpsL-V1HZYDbfXuSaT9-7" target="z33MWp9mNh7eNpvnp5NN-8">
          <mxGeometry relative="1" as="geometry" />
        </mxCell>
        <mxCell id="TFpsL-V1HZYDbfXuSaT9-7" value="Dropout: 20%" style="shape=parallelogram;perimeter=parallelogramPerimeter;whiteSpace=wrap;html=1;fixedSize=1;fillColor=#dae8fc;strokeColor=#6c8ebf;sketch=1;curveFitting=1;jiggle=2;" vertex="1" parent="1">
          <mxGeometry x="350" y="830" width="140" height="30" as="geometry" />
        </mxCell>
        <mxCell id="7nl_Tk83SEgFqbmFmYJh-1" value="Hidden Layer" style="text;html=1;align=center;verticalAlign=middle;resizable=0;points=[];autosize=1;strokeColor=none;fillColor=none;" vertex="1" parent="1">
          <mxGeometry x="500" y="255" width="90" height="30" as="geometry" />
        </mxCell>
        <mxCell id="7nl_Tk83SEgFqbmFmYJh-2" value="Hidden Layer" style="text;html=1;align=center;verticalAlign=middle;resizable=0;points=[];autosize=1;strokeColor=none;fillColor=none;" vertex="1" parent="1">
          <mxGeometry x="500" y="490" width="90" height="30" as="geometry" />
        </mxCell>
        <mxCell id="7nl_Tk83SEgFqbmFmYJh-3" value="Hidden Layer" style="text;html=1;align=center;verticalAlign=middle;resizable=0;points=[];autosize=1;strokeColor=none;fillColor=none;" vertex="1" parent="1">
          <mxGeometry x="500" y="720" width="90" height="30" as="geometry" />
        </mxCell>
      </root>
    </mxGraphModel>
  </diagram>
  <diagram id="2qolj-P7ppmxzcyIxBUx" name="Page-6">
    <mxGraphModel dx="1366" dy="703" grid="1" gridSize="10" guides="1" tooltips="1" connect="1" arrows="1" fold="1" page="1" pageScale="1" pageWidth="827" pageHeight="1169" math="0" shadow="0">
      <root>
        <mxCell id="0" />
        <mxCell id="1" parent="0" />
        <mxCell id="yHl8Ynu82q1i9Wn46szQ-6" style="edgeStyle=orthogonalEdgeStyle;rounded=0;orthogonalLoop=1;jettySize=auto;html=1;exitX=0.5;exitY=1;exitDx=0;exitDy=0;entryX=0.5;entryY=0;entryDx=0;entryDy=0;" edge="1" parent="1" source="uZBQKk-xPNPzjjPGNEux-3" target="Mm6UfSFz1pdaamSHr60a-12">
          <mxGeometry relative="1" as="geometry" />
        </mxCell>
        <mxCell id="uZBQKk-xPNPzjjPGNEux-3" value="&lt;font style=&quot;font-size: 11px;&quot;&gt;Inputs&lt;/font&gt;&lt;div style=&quot;font-size: 11px;&quot;&gt;&lt;font style=&quot;font-size: 11px;&quot;&gt;32x32x3&lt;/font&gt;&lt;/div&gt;" style="ellipse;whiteSpace=wrap;html=1;fillColor=#d5e8d4;strokeColor=#82b366;shadow=1;sketch=1;curveFitting=1;jiggle=2;" vertex="1" parent="1">
          <mxGeometry x="471.32" y="24" width="80" height="70" as="geometry" />
        </mxCell>
        <mxCell id="uZBQKk-xPNPzjjPGNEux-4" value="Output Layer, 100" style="rounded=1;whiteSpace=wrap;html=1;fillColor=#fad7ac;strokeColor=#b46504;sketch=1;curveFitting=1;jiggle=2;" vertex="1" parent="1">
          <mxGeometry x="440.57" y="1104" width="140" height="40" as="geometry" />
        </mxCell>
        <mxCell id="uZBQKk-xPNPzjjPGNEux-9" value="" style="rounded=1;whiteSpace=wrap;html=1;dashed=1;fillColor=none;sketch=1;curveFitting=1;jiggle=2;" vertex="1" parent="1">
          <mxGeometry x="127.94" y="18" width="140" height="156" as="geometry" />
        </mxCell>
        <mxCell id="uZBQKk-xPNPzjjPGNEux-10" style="edgeStyle=orthogonalEdgeStyle;rounded=0;orthogonalLoop=1;jettySize=auto;html=1;exitX=0.5;exitY=1;exitDx=0;exitDy=0;entryX=0.5;entryY=0;entryDx=0;entryDy=0;" edge="1" parent="1">
          <mxGeometry relative="1" as="geometry">
            <mxPoint x="197.94" y="68" as="sourcePoint" />
            <mxPoint x="197.94" y="83" as="targetPoint" />
          </mxGeometry>
        </mxCell>
        <mxCell id="uZBQKk-xPNPzjjPGNEux-11" value="Conv2D Layer" style="rounded=1;whiteSpace=wrap;html=1;fillColor=#dae8fc;strokeColor=#6c8ebf;sketch=1;curveFitting=1;jiggle=2;" vertex="1" parent="1">
          <mxGeometry x="137.94" y="28" width="120" height="40" as="geometry" />
        </mxCell>
        <mxCell id="uZBQKk-xPNPzjjPGNEux-13" value="LeakyReLU" style="shape=parallelogram;perimeter=parallelogramPerimeter;whiteSpace=wrap;html=1;fixedSize=1;fillColor=#b0e3e6;strokeColor=#0e8088;sketch=1;curveFitting=1;jiggle=2;" vertex="1" parent="1">
          <mxGeometry x="137.94" y="133" width="120" height="30" as="geometry" />
        </mxCell>
        <mxCell id="uZBQKk-xPNPzjjPGNEux-17" value="Kernel: 3x3&lt;div&gt;Filters: 16&lt;/div&gt;&lt;div&gt;Stride: 1&lt;br&gt;Padding: 1&lt;/div&gt;" style="text;html=1;align=center;verticalAlign=middle;resizable=0;points=[];autosize=1;fillColor=none;dashed=1;" vertex="1" parent="1">
          <mxGeometry x="572.94" y="104" width="80" height="70" as="geometry" />
        </mxCell>
        <mxCell id="uZBQKk-xPNPzjjPGNEux-18" value="32x32x16" style="text;html=1;align=center;verticalAlign=middle;resizable=0;points=[];autosize=1;fillColor=none;dashed=1;" vertex="1" parent="1">
          <mxGeometry x="381.32" y="124" width="80" height="30" as="geometry" />
        </mxCell>
        <mxCell id="uZBQKk-xPNPzjjPGNEux-21" style="edgeStyle=orthogonalEdgeStyle;rounded=0;orthogonalLoop=1;jettySize=auto;html=1;exitX=0.5;exitY=1;exitDx=0;exitDy=0;entryX=0.5;entryY=0;entryDx=0;entryDy=0;" edge="1" parent="1">
          <mxGeometry relative="1" as="geometry">
            <mxPoint x="197.94" y="113" as="sourcePoint" />
            <mxPoint x="197.94" y="133" as="targetPoint" />
          </mxGeometry>
        </mxCell>
        <mxCell id="uZBQKk-xPNPzjjPGNEux-22" value="Batch Norm" style="shape=hexagon;perimeter=hexagonPerimeter2;whiteSpace=wrap;html=1;fixedSize=1;fillColor=#fad9d5;strokeColor=#ae4132;sketch=1;curveFitting=1;jiggle=2;" vertex="1" parent="1">
          <mxGeometry x="137.94" y="83" width="120" height="30" as="geometry" />
        </mxCell>
        <mxCell id="uZBQKk-xPNPzjjPGNEux-40" value="Kernel: 3x3&lt;div&gt;Filters: 32&lt;/div&gt;&lt;div&gt;Stride: 1&lt;br&gt;Padding: 1&lt;/div&gt;" style="text;html=1;align=center;verticalAlign=middle;resizable=0;points=[];autosize=1;fillColor=none;dashed=1;" vertex="1" parent="1">
          <mxGeometry x="397.38" y="194" width="80" height="70" as="geometry" />
        </mxCell>
        <mxCell id="uZBQKk-xPNPzjjPGNEux-41" value="32x32x32" style="text;html=1;align=center;verticalAlign=middle;resizable=0;points=[];autosize=1;fillColor=none;dashed=1;" vertex="1" parent="1">
          <mxGeometry x="200" y="214" width="80" height="30" as="geometry" />
        </mxCell>
        <mxCell id="Mm6UfSFz1pdaamSHr60a-20" style="edgeStyle=orthogonalEdgeStyle;rounded=0;orthogonalLoop=1;jettySize=auto;html=1;exitX=0.5;exitY=1;exitDx=0;exitDy=0;entryX=1;entryY=0.5;entryDx=0;entryDy=0;" edge="1" parent="1" source="uZBQKk-xPNPzjjPGNEux-46" target="uZBQKk-xPNPzjjPGNEux-60">
          <mxGeometry relative="1" as="geometry" />
        </mxCell>
        <mxCell id="uZBQKk-xPNPzjjPGNEux-46" value="Conv2D Layer" style="rounded=1;whiteSpace=wrap;html=1;fillColor=#dae8fc;strokeColor=#6c8ebf;sketch=1;curveFitting=1;jiggle=2;" vertex="1" parent="1">
          <mxGeometry x="602.63" y="209" width="140" height="40" as="geometry" />
        </mxCell>
        <mxCell id="uZBQKk-xPNPzjjPGNEux-48" value="Kernel: 1x1&lt;div&gt;Filters: 32&lt;/div&gt;&lt;div&gt;Stride: 1&lt;br&gt;Padding: 1&lt;/div&gt;" style="text;html=1;align=center;verticalAlign=middle;resizable=0;points=[];autosize=1;fillColor=none;dashed=1;" vertex="1" parent="1">
          <mxGeometry x="742.6299999999999" y="194" width="80" height="70" as="geometry" />
        </mxCell>
        <mxCell id="uZBQKk-xPNPzjjPGNEux-49" value="32x32x32" style="text;html=1;align=center;verticalAlign=middle;resizable=0;points=[];autosize=1;fillColor=none;dashed=1;" vertex="1" parent="1">
          <mxGeometry x="524.13" y="214" width="80" height="30" as="geometry" />
        </mxCell>
        <mxCell id="Mm6UfSFz1pdaamSHr60a-19" style="edgeStyle=orthogonalEdgeStyle;rounded=0;orthogonalLoop=1;jettySize=auto;html=1;exitX=0.5;exitY=1;exitDx=0;exitDy=0;entryX=0.5;entryY=0;entryDx=0;entryDy=0;" edge="1" parent="1" source="uZBQKk-xPNPzjjPGNEux-60" target="Mm6UfSFz1pdaamSHr60a-14">
          <mxGeometry relative="1" as="geometry" />
        </mxCell>
        <mxCell id="uZBQKk-xPNPzjjPGNEux-60" value="+" style="ellipse;whiteSpace=wrap;html=1;aspect=fixed;" vertex="1" parent="1">
          <mxGeometry x="496.32" y="264" width="30" height="30" as="geometry" />
        </mxCell>
        <mxCell id="WCZHD0-Dis-DIkQ3P8Hs-6" value="Kernel: 3x3&lt;div&gt;Filters: 64&lt;/div&gt;&lt;div&gt;Stride: 1&lt;br&gt;Padding: 1&lt;/div&gt;" style="text;html=1;align=center;verticalAlign=middle;resizable=0;points=[];autosize=1;fillColor=none;dashed=1;" vertex="1" parent="1">
          <mxGeometry x="407.94" y="439" width="80" height="70" as="geometry" />
        </mxCell>
        <mxCell id="WCZHD0-Dis-DIkQ3P8Hs-7" value="16x16x64" style="text;html=1;align=center;verticalAlign=middle;resizable=0;points=[];autosize=1;fillColor=none;dashed=1;" vertex="1" parent="1">
          <mxGeometry x="207.94" y="454" width="80" height="30" as="geometry" />
        </mxCell>
        <mxCell id="Mm6UfSFz1pdaamSHr60a-28" style="edgeStyle=orthogonalEdgeStyle;rounded=0;orthogonalLoop=1;jettySize=auto;html=1;exitX=0.5;exitY=1;exitDx=0;exitDy=0;entryX=1;entryY=0.5;entryDx=0;entryDy=0;" edge="1" parent="1" source="WCZHD0-Dis-DIkQ3P8Hs-12" target="WCZHD0-Dis-DIkQ3P8Hs-22">
          <mxGeometry relative="1" as="geometry" />
        </mxCell>
        <mxCell id="WCZHD0-Dis-DIkQ3P8Hs-12" value="Conv2D Layer" style="rounded=1;whiteSpace=wrap;html=1;fillColor=#dae8fc;strokeColor=#6c8ebf;sketch=1;curveFitting=1;jiggle=2;" vertex="1" parent="1">
          <mxGeometry x="594.69" y="449" width="140" height="40" as="geometry" />
        </mxCell>
        <mxCell id="WCZHD0-Dis-DIkQ3P8Hs-13" value="Kernel: 1x1&lt;div&gt;Filters: 64&lt;/div&gt;&lt;div&gt;Stride: 1&lt;br&gt;Padding: 1&lt;/div&gt;" style="text;html=1;align=center;verticalAlign=middle;resizable=0;points=[];autosize=1;fillColor=none;dashed=1;" vertex="1" parent="1">
          <mxGeometry x="734.69" y="434" width="80" height="70" as="geometry" />
        </mxCell>
        <mxCell id="WCZHD0-Dis-DIkQ3P8Hs-14" value="16x16x64" style="text;html=1;align=center;verticalAlign=middle;resizable=0;points=[];autosize=1;fillColor=none;dashed=1;" vertex="1" parent="1">
          <mxGeometry x="514.69" y="454" width="80" height="30" as="geometry" />
        </mxCell>
        <mxCell id="Mm6UfSFz1pdaamSHr60a-26" style="edgeStyle=orthogonalEdgeStyle;rounded=0;orthogonalLoop=1;jettySize=auto;html=1;exitX=0.5;exitY=1;exitDx=0;exitDy=0;entryX=0.5;entryY=0;entryDx=0;entryDy=0;" edge="1" parent="1" source="WCZHD0-Dis-DIkQ3P8Hs-22" target="Mm6UfSFz1pdaamSHr60a-24">
          <mxGeometry relative="1" as="geometry" />
        </mxCell>
        <mxCell id="WCZHD0-Dis-DIkQ3P8Hs-22" value="+" style="ellipse;whiteSpace=wrap;html=1;aspect=fixed;" vertex="1" parent="1">
          <mxGeometry x="495.95" y="509" width="30" height="30" as="geometry" />
        </mxCell>
        <mxCell id="Mm6UfSFz1pdaamSHr60a-16" style="edgeStyle=orthogonalEdgeStyle;rounded=0;orthogonalLoop=1;jettySize=auto;html=1;exitX=0;exitY=0.5;exitDx=0;exitDy=0;entryX=0.5;entryY=0;entryDx=0;entryDy=0;" edge="1" parent="1" source="F2ewk5s9LkeqmwYU2VoB-1" target="Mm6UfSFz1pdaamSHr60a-15">
          <mxGeometry relative="1" as="geometry" />
        </mxCell>
        <mxCell id="Mm6UfSFz1pdaamSHr60a-17" style="edgeStyle=orthogonalEdgeStyle;rounded=0;orthogonalLoop=1;jettySize=auto;html=1;exitX=1;exitY=0.5;exitDx=0;exitDy=0;entryX=0.5;entryY=0;entryDx=0;entryDy=0;" edge="1" parent="1" source="F2ewk5s9LkeqmwYU2VoB-1" target="WCZHD0-Dis-DIkQ3P8Hs-12">
          <mxGeometry relative="1" as="geometry" />
        </mxCell>
        <mxCell id="F2ewk5s9LkeqmwYU2VoB-1" value="Max. Pooling" style="shape=hexagon;perimeter=hexagonPerimeter2;whiteSpace=wrap;html=1;fixedSize=1;fillColor=#fad9d5;strokeColor=#ae4132;sketch=1;curveFitting=1;jiggle=2;" vertex="1" parent="1">
          <mxGeometry x="441.32" y="384" width="140" height="30" as="geometry" />
        </mxCell>
        <mxCell id="F2ewk5s9LkeqmwYU2VoB-5" value="16x16x32" style="text;html=1;align=center;verticalAlign=middle;resizable=0;points=[];autosize=1;fillColor=none;dashed=1;" vertex="1" parent="1">
          <mxGeometry x="470.57" y="414" width="80" height="30" as="geometry" />
        </mxCell>
        <mxCell id="Mm6UfSFz1pdaamSHr60a-30" style="edgeStyle=orthogonalEdgeStyle;rounded=0;orthogonalLoop=1;jettySize=auto;html=1;exitX=0.5;exitY=1;exitDx=0;exitDy=0;entryX=0.5;entryY=0;entryDx=0;entryDy=0;" edge="1" parent="1" source="F2ewk5s9LkeqmwYU2VoB-6" target="G6NM57sDdfJbTFpjVOL3-1">
          <mxGeometry relative="1" as="geometry" />
        </mxCell>
        <mxCell id="F2ewk5s9LkeqmwYU2VoB-6" value="Max. Pooling" style="shape=hexagon;perimeter=hexagonPerimeter2;whiteSpace=wrap;html=1;fixedSize=1;fillColor=#fad9d5;strokeColor=#ae4132;sketch=1;curveFitting=1;jiggle=2;" vertex="1" parent="1">
          <mxGeometry x="441.32" y="634" width="140" height="30" as="geometry" />
        </mxCell>
        <mxCell id="Mm6UfSFz1pdaamSHr60a-33" style="edgeStyle=orthogonalEdgeStyle;rounded=0;orthogonalLoop=1;jettySize=auto;html=1;exitX=0.5;exitY=1;exitDx=0;exitDy=0;entryX=0.5;entryY=0;entryDx=0;entryDy=0;" edge="1" parent="1" source="_sqk5cFuh7fq41czvtsN-1" target="pfyhU4vBYxt66rKZbtER-1">
          <mxGeometry relative="1" as="geometry" />
        </mxCell>
        <mxCell id="_sqk5cFuh7fq41czvtsN-1" value="" style="rounded=1;whiteSpace=wrap;html=1;dashed=1;sketch=1;curveFitting=1;jiggle=2;fillColor=none;" vertex="1" parent="1">
          <mxGeometry x="430.57" y="744" width="160" height="110" as="geometry" />
        </mxCell>
        <mxCell id="_sqk5cFuh7fq41czvtsN-2" value="" style="edgeStyle=orthogonalEdgeStyle;rounded=0;orthogonalLoop=1;jettySize=auto;html=1;sketch=1;curveFitting=1;jiggle=2;" edge="1" parent="1" source="_sqk5cFuh7fq41czvtsN-3" target="_sqk5cFuh7fq41czvtsN-4">
          <mxGeometry relative="1" as="geometry" />
        </mxCell>
        <mxCell id="_sqk5cFuh7fq41czvtsN-3" value="FC Layer, 512" style="rounded=1;whiteSpace=wrap;html=1;fillColor=#fff2cc;strokeColor=#d6b656;sketch=1;curveFitting=1;jiggle=2;" vertex="1" parent="1">
          <mxGeometry x="440.57" y="754" width="140" height="40" as="geometry" />
        </mxCell>
        <mxCell id="_sqk5cFuh7fq41czvtsN-4" value="ReLU" style="shape=parallelogram;perimeter=parallelogramPerimeter;whiteSpace=wrap;html=1;fixedSize=1;fillColor=#b0e3e6;strokeColor=#0e8088;sketch=1;curveFitting=1;jiggle=2;" vertex="1" parent="1">
          <mxGeometry x="440.57" y="814" width="140" height="30" as="geometry" />
        </mxCell>
        <mxCell id="Mm6UfSFz1pdaamSHr60a-34" style="edgeStyle=orthogonalEdgeStyle;rounded=0;orthogonalLoop=1;jettySize=auto;html=1;exitX=0.5;exitY=1;exitDx=0;exitDy=0;entryX=0.5;entryY=0;entryDx=0;entryDy=0;" edge="1" parent="1" source="pfyhU4vBYxt66rKZbtER-1" target="pfyhU4vBYxt66rKZbtER-2">
          <mxGeometry relative="1" as="geometry" />
        </mxCell>
        <mxCell id="pfyhU4vBYxt66rKZbtER-1" value="Dropout: 35%" style="shape=parallelogram;perimeter=parallelogramPerimeter;whiteSpace=wrap;html=1;fixedSize=1;fillColor=#dae8fc;strokeColor=#6c8ebf;sketch=1;curveFitting=1;jiggle=2;" vertex="1" parent="1">
          <mxGeometry x="440.57" y="874" width="140" height="30" as="geometry" />
        </mxCell>
        <mxCell id="Mm6UfSFz1pdaamSHr60a-35" style="edgeStyle=orthogonalEdgeStyle;rounded=0;orthogonalLoop=1;jettySize=auto;html=1;exitX=0.5;exitY=1;exitDx=0;exitDy=0;entryX=0.5;entryY=0;entryDx=0;entryDy=0;" edge="1" parent="1" source="pfyhU4vBYxt66rKZbtER-2" target="pfyhU4vBYxt66rKZbtER-6">
          <mxGeometry relative="1" as="geometry" />
        </mxCell>
        <mxCell id="pfyhU4vBYxt66rKZbtER-2" value="" style="rounded=1;whiteSpace=wrap;html=1;dashed=1;sketch=1;curveFitting=1;jiggle=2;fillColor=none;" vertex="1" parent="1">
          <mxGeometry x="430.57" y="924" width="160" height="110" as="geometry" />
        </mxCell>
        <mxCell id="pfyhU4vBYxt66rKZbtER-3" value="" style="edgeStyle=orthogonalEdgeStyle;rounded=0;orthogonalLoop=1;jettySize=auto;html=1;sketch=1;curveFitting=1;jiggle=2;" edge="1" parent="1" source="pfyhU4vBYxt66rKZbtER-4" target="pfyhU4vBYxt66rKZbtER-5">
          <mxGeometry relative="1" as="geometry" />
        </mxCell>
        <mxCell id="pfyhU4vBYxt66rKZbtER-4" value="FC Layer, 128" style="rounded=1;whiteSpace=wrap;html=1;fillColor=#fff2cc;strokeColor=#d6b656;sketch=1;curveFitting=1;jiggle=2;" vertex="1" parent="1">
          <mxGeometry x="440.57" y="934" width="140" height="40" as="geometry" />
        </mxCell>
        <mxCell id="pfyhU4vBYxt66rKZbtER-5" value="ReLU" style="shape=parallelogram;perimeter=parallelogramPerimeter;whiteSpace=wrap;html=1;fixedSize=1;fillColor=#b0e3e6;strokeColor=#0e8088;sketch=1;curveFitting=1;jiggle=2;" vertex="1" parent="1">
          <mxGeometry x="440.57" y="994" width="140" height="30" as="geometry" />
        </mxCell>
        <mxCell id="Mm6UfSFz1pdaamSHr60a-36" style="edgeStyle=orthogonalEdgeStyle;rounded=0;orthogonalLoop=1;jettySize=auto;html=1;exitX=0.5;exitY=1;exitDx=0;exitDy=0;entryX=0.5;entryY=0;entryDx=0;entryDy=0;" edge="1" parent="1" source="pfyhU4vBYxt66rKZbtER-6" target="uZBQKk-xPNPzjjPGNEux-4">
          <mxGeometry relative="1" as="geometry" />
        </mxCell>
        <mxCell id="pfyhU4vBYxt66rKZbtER-6" value="Dropout: 20%" style="shape=parallelogram;perimeter=parallelogramPerimeter;whiteSpace=wrap;html=1;fixedSize=1;fillColor=#dae8fc;strokeColor=#6c8ebf;sketch=1;curveFitting=1;jiggle=2;" vertex="1" parent="1">
          <mxGeometry x="441.32" y="1054" width="140" height="30" as="geometry" />
        </mxCell>
        <mxCell id="pfyhU4vBYxt66rKZbtER-9" value="Flatten" style="text;html=1;align=center;verticalAlign=middle;resizable=0;points=[];autosize=1;strokeColor=none;fillColor=none;" vertex="1" parent="1">
          <mxGeometry x="580.57" y="690" width="60" height="30" as="geometry" />
        </mxCell>
        <mxCell id="pfyhU4vBYxt66rKZbtER-10" value="8x8x64" style="text;html=1;align=center;verticalAlign=middle;resizable=0;points=[];autosize=1;fillColor=none;dashed=1;" vertex="1" parent="1">
          <mxGeometry x="580.57" y="634" width="60" height="30" as="geometry" />
        </mxCell>
        <mxCell id="Mm6UfSFz1pdaamSHr60a-29" style="edgeStyle=orthogonalEdgeStyle;rounded=0;orthogonalLoop=1;jettySize=auto;html=1;exitX=0.5;exitY=1;exitDx=0;exitDy=0;entryX=0.5;entryY=0;entryDx=0;entryDy=0;" edge="1" parent="1" source="G6NM57sDdfJbTFpjVOL3-1" target="_sqk5cFuh7fq41czvtsN-1">
          <mxGeometry relative="1" as="geometry" />
        </mxCell>
        <mxCell id="G6NM57sDdfJbTFpjVOL3-1" value="Input FC Layer, 4096" style="rounded=1;whiteSpace=wrap;html=1;fillColor=#fff2cc;strokeColor=#d6b656;glass=0;sketch=1;curveFitting=1;jiggle=2;" vertex="1" parent="1">
          <mxGeometry x="441.32" y="685" width="140" height="40" as="geometry" />
        </mxCell>
        <mxCell id="TVtTTn-2y_s8-25haShi-14" value="Kernel: 3x3&lt;div&gt;Filters: 32&lt;/div&gt;&lt;div&gt;Stride: 1&lt;br&gt;Padding: 1&lt;/div&gt;" style="text;html=1;align=center;verticalAlign=middle;resizable=0;points=[];autosize=1;fillColor=none;dashed=1;" vertex="1" parent="1">
          <mxGeometry x="571.3199999999999" y="304" width="80" height="70" as="geometry" />
        </mxCell>
        <mxCell id="TVtTTn-2y_s8-25haShi-15" value="32x32x32" style="text;html=1;align=center;verticalAlign=middle;resizable=0;points=[];autosize=1;fillColor=none;dashed=1;" vertex="1" parent="1">
          <mxGeometry x="371.32" y="324" width="80" height="30" as="geometry" />
        </mxCell>
        <mxCell id="Mm6UfSFz1pdaamSHr60a-5" value="Kernel: 3x3&lt;div&gt;Filters: 64&lt;/div&gt;&lt;div&gt;Stride: 1&lt;br&gt;Padding: 1&lt;/div&gt;" style="text;html=1;align=center;verticalAlign=middle;resizable=0;points=[];autosize=1;fillColor=none;dashed=1;" vertex="1" parent="1">
          <mxGeometry x="570.95" y="554" width="80" height="70" as="geometry" />
        </mxCell>
        <mxCell id="Mm6UfSFz1pdaamSHr60a-6" value="16x16x64" style="text;html=1;align=center;verticalAlign=middle;resizable=0;points=[];autosize=1;fillColor=none;dashed=1;" vertex="1" parent="1">
          <mxGeometry x="371.7" y="574" width="80" height="30" as="geometry" />
        </mxCell>
        <mxCell id="Mm6UfSFz1pdaamSHr60a-22" style="edgeStyle=orthogonalEdgeStyle;rounded=0;orthogonalLoop=1;jettySize=auto;html=1;exitX=0.5;exitY=1;exitDx=0;exitDy=0;entryX=0.5;entryY=0;entryDx=0;entryDy=0;" edge="1" parent="1" source="Mm6UfSFz1pdaamSHr60a-12" target="uZBQKk-xPNPzjjPGNEux-46">
          <mxGeometry relative="1" as="geometry" />
        </mxCell>
        <mxCell id="Mm6UfSFz1pdaamSHr60a-23" style="edgeStyle=orthogonalEdgeStyle;rounded=0;orthogonalLoop=1;jettySize=auto;html=1;exitX=0.5;exitY=1;exitDx=0;exitDy=0;entryX=0.5;entryY=0;entryDx=0;entryDy=0;" edge="1" parent="1" source="Mm6UfSFz1pdaamSHr60a-12" target="Mm6UfSFz1pdaamSHr60a-13">
          <mxGeometry relative="1" as="geometry" />
        </mxCell>
        <mxCell id="Mm6UfSFz1pdaamSHr60a-12" value="Conv2D Op." style="rounded=1;whiteSpace=wrap;html=1;fillColor=#ffe6cc;strokeColor=#d79b00;sketch=1;curveFitting=1;jiggle=2;" vertex="1" parent="1">
          <mxGeometry x="451.32" y="116.5" width="120" height="45" as="geometry" />
        </mxCell>
        <mxCell id="Mm6UfSFz1pdaamSHr60a-21" style="edgeStyle=orthogonalEdgeStyle;rounded=0;orthogonalLoop=1;jettySize=auto;html=1;exitX=0.5;exitY=1;exitDx=0;exitDy=0;entryX=0;entryY=0.5;entryDx=0;entryDy=0;" edge="1" parent="1" source="Mm6UfSFz1pdaamSHr60a-13" target="uZBQKk-xPNPzjjPGNEux-60">
          <mxGeometry relative="1" as="geometry" />
        </mxCell>
        <mxCell id="Mm6UfSFz1pdaamSHr60a-13" value="Conv2D Op." style="rounded=1;whiteSpace=wrap;html=1;fillColor=#ffe6cc;strokeColor=#d79b00;sketch=1;curveFitting=1;jiggle=2;" vertex="1" parent="1">
          <mxGeometry x="277.38" y="209" width="120" height="40" as="geometry" />
        </mxCell>
        <mxCell id="Mm6UfSFz1pdaamSHr60a-18" style="edgeStyle=orthogonalEdgeStyle;rounded=0;orthogonalLoop=1;jettySize=auto;html=1;exitX=0.5;exitY=1;exitDx=0;exitDy=0;entryX=0.5;entryY=0;entryDx=0;entryDy=0;" edge="1" parent="1" source="Mm6UfSFz1pdaamSHr60a-14" target="F2ewk5s9LkeqmwYU2VoB-1">
          <mxGeometry relative="1" as="geometry" />
        </mxCell>
        <mxCell id="Mm6UfSFz1pdaamSHr60a-14" value="Conv2D Op." style="rounded=1;whiteSpace=wrap;html=1;fillColor=#ffe6cc;strokeColor=#d79b00;sketch=1;curveFitting=1;jiggle=2;" vertex="1" parent="1">
          <mxGeometry x="451.32" y="319" width="120" height="40" as="geometry" />
        </mxCell>
        <mxCell id="Mm6UfSFz1pdaamSHr60a-27" style="edgeStyle=orthogonalEdgeStyle;rounded=0;orthogonalLoop=1;jettySize=auto;html=1;exitX=0.5;exitY=1;exitDx=0;exitDy=0;entryX=0;entryY=0.5;entryDx=0;entryDy=0;" edge="1" parent="1" source="Mm6UfSFz1pdaamSHr60a-15" target="WCZHD0-Dis-DIkQ3P8Hs-22">
          <mxGeometry relative="1" as="geometry" />
        </mxCell>
        <mxCell id="Mm6UfSFz1pdaamSHr60a-15" value="Conv2D Op." style="rounded=1;whiteSpace=wrap;html=1;fillColor=#ffe6cc;strokeColor=#d79b00;sketch=1;curveFitting=1;jiggle=2;" vertex="1" parent="1">
          <mxGeometry x="287.94" y="449" width="120" height="40" as="geometry" />
        </mxCell>
        <mxCell id="Mm6UfSFz1pdaamSHr60a-31" style="edgeStyle=orthogonalEdgeStyle;rounded=0;orthogonalLoop=1;jettySize=auto;html=1;exitX=0.5;exitY=1;exitDx=0;exitDy=0;entryX=0.5;entryY=0;entryDx=0;entryDy=0;" edge="1" parent="1" source="Mm6UfSFz1pdaamSHr60a-24" target="F2ewk5s9LkeqmwYU2VoB-6">
          <mxGeometry relative="1" as="geometry" />
        </mxCell>
        <mxCell id="Mm6UfSFz1pdaamSHr60a-24" value="Conv2D Op." style="rounded=1;whiteSpace=wrap;html=1;fillColor=#ffe6cc;strokeColor=#d79b00;sketch=1;curveFitting=1;jiggle=2;" vertex="1" parent="1">
          <mxGeometry x="450.95" y="569" width="120" height="40" as="geometry" />
        </mxCell>
        <mxCell id="yHl8Ynu82q1i9Wn46szQ-5" value="" style="edgeStyle=orthogonalEdgeStyle;rounded=0;orthogonalLoop=1;jettySize=auto;html=1;" edge="1" parent="1" source="Mm6UfSFz1pdaamSHr60a-37" target="uZBQKk-xPNPzjjPGNEux-22">
          <mxGeometry relative="1" as="geometry" />
        </mxCell>
        <mxCell id="Mm6UfSFz1pdaamSHr60a-37" value="Conv2D Op." style="rounded=1;whiteSpace=wrap;html=1;fillColor=#ffe6cc;strokeColor=#d79b00;sketch=1;curveFitting=1;jiggle=2;" vertex="1" parent="1">
          <mxGeometry x="20" y="80" width="90" height="36" as="geometry" />
        </mxCell>
      </root>
    </mxGraphModel>
  </diagram>
</mxfile>
